/* XPM */
static const char *PiePlot_xpm[] = {
/* columns rows colors chars-per-pixel */
"32 32 175 2 ",
"   c black",
".  c #040505",
"X  c #070505",
"o  c #070705",
"O  c #070606",
"+  c #090801",
"@  c #010308",
"#  c #07080F",
"$  c #0A0A09",
"%  c #0B0B0B",
"&  c #140000",
"*  c #14120E",
"=  c #0F0F11",
"-  c #071010",
";  c #131717",
":  c #161616",
">  c gray9",
",  c #1C1B16",
"<  c #16171C",
"1  c #220101",
"2  c #221F03",
"3  c #241D00",
"4  c #221F14",
"5  c #22221D",
"6  c #141621",
"7  c #171929",
"8  c #1D1F2E",
"9  c #1F2028",
"0  c #172A2A",
"q  c #1F2828",
"w  c #1D2E2E",
"e  c #202020",
"r  c gray14",
"t  c #2C2C2C",
"y  c #2F2C2F",
"u  c #691515",
"i  c #453E04",
"p  c #6F2A2A",
"a  c #6C6006",
"s  c #6C7B00",
"d  c #696019",
"f  c #6F682E",
"g  c gray27",
"h  c #4B4B4B",
"j  c #5C4C4C",
"k  c #565868",
"l  c #4D5678",
"z  c #6F6B6F",
"x  c #6C6C6C",
"c  c #706F66",
"v  c #7A7764",
"b  c #79766C",
"n  c #62677A",
"m  c #901C1C",
"M  c #BA3A00",
"N  c #B62222",
"B  c #D90909",
"V  c #DB1E00",
"C  c #C91010",
"Z  c red",
"A  c #FF0202",
"S  c #FD0505",
"D  c #F60800",
"F  c #FF0909",
"G  c #F91616",
"H  c #FE1414",
"J  c #FE1B1B",
"K  c #DB0824",
"L  c #E12828",
"P  c #865900",
"I  c #935A00",
"U  c #BA0F45",
"Y  c #24B700",
"T  c #459B00",
"R  c #09CD00",
"E  c #00D400",
"W  c #00D500",
"Q  c #06D606",
"!  c #09D601",
"~  c #00D800",
"^  c #00DB00",
"/  c #0FD70F",
"(  c #1AD81A",
")  c #24D702",
"_  c #00E000",
"`  c #00E200",
"'  c #00E400",
"]  c #00E500",
"[  c #29D429",
"{  c #45D904",
"}  c #6CDB06",
"|  c #5AEA06",
" . c #938409",
".. c #BAA60B",
"X. c #908423",
"o. c #9A8F35",
"O. c #B6A62A",
"+. c #C9B51B",
"@. c #93DE09",
"#. c #BAE00B",
"$. c #D8C40D",
"%. c #F6DC0E",
"&. c #DBE20D",
"*. c #FFE506",
"=. c #FFE407",
"-. c #FFE706",
";. c #F6E30E",
":. c #FFE508",
">. c #FFE50B",
",. c #FFE40C",
"<. c #FFE40D",
"1. c #FFE50D",
"2. c #FFE40E",
"3. c #FFE40F",
"4. c #FFE70F",
"5. c #FFEC0B",
"6. c #FFE90E",
"7. c #FFEA0F",
"8. c #FFEE0C",
"9. c #FFFA0D",
"0. c #FDE313",
"q. c #FFE510",
"w. c #FFE711",
"e. c #FBE114",
"r. c #FFEC10",
"t. c #FFF010",
"y. c #FFF210",
"u. c #FFF510",
"i. c #FFF318",
"p. c #F3DA24",
"a. c #FEF022",
"s. c #FEF429",
"d. c #EEE14D",
"f. c #6C1F93",
"g. c #4527BA",
"h. c #2F459A",
"j. c #586182",
"k. c #002BDB",
"l. c #0027FF",
"z. c #0028FF",
"x. c #002AFF",
"c. c #002BFF",
"v. c #002FFF",
"b. c #0934F6",
"n. c #0030FF",
"m. c #0032FE",
"M. c #0033FF",
"N. c #0034FF",
"B. c #0035FF",
"V. c #0036FF",
"C. c #053AFB",
"Z. c #0038FF",
"A. c #0039FF",
"S. c #003AFF",
"D. c #093DFF",
"F. c #1745F3",
"G. c #2E58F4",
"H. c #2452FF",
"J. c #456DFF",
"K. c #6C8BFF",
"L. c #939393",
"P. c gray73",
"I. c #93AAFF",
"U. c #A5BCFF",
"Y. c #B7C5FC",
"T. c #BAC8FF",
"R. c gray86",
"E. c #DBE3FF",
"W. c #EEEEEE",
"Q. c #F1F1F1",
"!. c #F6F6F6",
"~. c #F6F8FF",
"^. c #FDFFFF",
"/. c white",
"(. c None",
/* pixels */
"(.(.(.(.(.(.(.(.(.(.(.(.(.(.(.(.(.(.(.(.(.(.(.(.(.(.(.(.(.(.(.(.",
"(.(.(.(.(.(.(.(.(.(.(.(.(.(.(.(.(.(.(.(.(.(.(.(.(.(.(.(.(.(.(.(.",
"(.(.(.(.(.(.(.(.(.(.(.(.(.(.(.(.                    (.(.(.(.(.(.",
"(.(.(.(.(.(.(.(.(.(.(.(.(.    $ h /./.W.Y.n.V.V.j.5     (.(.(.(.",
"(.(.(.(.(.(.(.(.(.(.(.    t /.Q././././.J.v.V.V.n.V.l *   (.(.(.",
"(.(.(.(.(.(.(.(.(.(.    g /./././././.~.n.V.V.V.Z.V.C.V.    (.(.",
"(.(.(.(.(.(.(.(.          x /././././.I.z.V.V.V.V.V.n.V.n     (.",
"(.(.(.(.(.(.(.      >     R./././././.H.n.Z.V.V.V.V.V.n.Z.<   (.",
"(.(.(.(.(.(.  >           r /./././.E.z.V.V.V.V.V.V.V.V.F.V.  (.",
"(.(.(.(.(.  8 O.9.a         L./././.K.v.V.V.V.V.V.V.V.V.V.h.4   ",
"(.(.(.(.(.  3.0.3.7.+       !./././.D.V.V.V.V.V.V.V.V.V.V.G.@ (.",
"(.(.(.(.# f 8.3.3.r...      g /./.T.z.V.V.V.V.V.V.V.Z.g.Z C 0   ",
"(.(.(.  k 3.>.3.3.3.3.u.i     P./.J.v.V.V.V.V.V.Z.U Z Z Z Z q   ",
"(.(.(.o 3.>.3.3.3.3.3.3.%.    $ /.v.V.V.V.V.b.Z Z Z Z Z S Z   (.",
"(.(.  d s.3.3.3.3.3.3.3.t. .  b U.z.V.Z.f.Z Z Z Z Z Z Z H m   (.",
"(.(.  3.w.3.3.3.3.3.3.3.3.3.t.3 k.Z.K Z Z Z Z Z Z Z Z Z F 1   (.",
"(.  2 i.3.3.3.3.3.3.3.3.3.3.$.& Z Z Z Z Z Z Z Z Z Z Z A B   (.(.",
"(.  X.a.>.3.3.3.3.3.3.3.3.w.| P Z Z Z Z Z Z Z Z Z Z Z J u   (.(.",
"(.  3.0.3.3.3.3.3.3.3.3.3.3.! ^ D Z Z Z Z Z Z Z Z Z Z Z o (.(.(.",
"  9 3.-.3.3.3.3.3.3.3.3.3.#.^ T Z Z Z Z Z Z Z Z Z Z L Z   (.(.(.",
"  7 +.7.3.3.3.3.3.3.3.w.{ W W ] M Z Z Z Z Z Z Z Z Z p - (.(.(.(.",
"(.o 3.>.3.3.3.3.3.3.3.;.W W W R Z Z Z Z Z Z Z Z S Z   (.(.(.(.(.",
"  6 o.5.3.3.3.3.3.3.3.@.W W W ^ s Z Z Z Z Z Z Z N w   (.(.(.(.(.",
"(.  3.p.3.3.3.3.3.3.w.) W W W ` V Z Z Z Z Z Z Z ;   (.(.(.(.(.(.",
"(.  , 3.-.0.3.3.3.3.&.W W W W ^ Y Z Z Z Z G Z     (.(.(.(.(.(.(.",
"(.    v d.=.3.3.3.} W W W W W ` I Z Z Z Z j     (.(.(.(.(.(.(.(.",
"(.(.    3.e.3.3.0.! W W W W W W ^ D Z Z o   (.(.(.(.(.(.(.(.(.(.",
"(.(.(.  = c 3.-.#.W W W W W W W [ Z t     (.(.(.(.(.(.(.(.(.(.(.",
"(.(.(.(.    e z W W / Q ( W W W %     (.(.(.(.(.(.(.(.(.(.(.(.(.",
"(.(.(.(.(.(.                    (.(.(.(.(.(.(.(.(.(.(.(.(.(.(.(.",
"(.(.(.(.(.(.(.(.(.(.(.(.(.(.(.(.(.(.(.(.(.(.(.(.(.(.(.(.(.(.(.(.",
"(.(.(.(.(.(.(.(.(.(.(.(.(.(.(.(.(.(.(.(.(.(.(.(.(.(.(.(.(.(.(.(."
};
